<?xml version="1.0" encoding="iso-8859-1"?>
<!-- Uploaded to: SVG Repo, www.svgrepo.com, Generator: SVG Repo Mixer Tools -->
<svg fill="#000000" version="1.1" id="Layer_1" xmlns="http://www.w3.org/2000/svg" xmlns:xlink="http://www.w3.org/1999/xlink" 
	 viewBox="0 0 512 512" xml:space="preserve">
<g>
	<g>
		<rect x="38.768" width="156.515" height="512"/>
	</g>
</g>
<g>
	<g>
		<rect x="284.434" y="128.627" width="132.702" height="43.886"/>
	</g>
</g>
<g>
	<g>
		<path d="M226.636,29.257V512h246.596V29.257H226.636z M253.093,97.28h195.396v106.58H253.093V97.28z M286.007,435.712H252.57
			v-31.347h33.437V435.712z M286.007,359.434H252.57v-31.347h33.437V359.434z M286.007,283.178H252.57v-31.347h33.437V283.178z
			 M367.509,435.712h-33.437v-31.347h33.437V435.712z M367.509,359.434h-33.437v-31.347h33.437V359.434z M367.509,283.178h-33.437
			v-31.347h33.437V283.178z M449.021,435.712h-33.437v-31.347h33.437V435.712z M449.021,359.434h-33.437v-31.347h33.437V359.434z
			 M449.021,283.178h-33.437v-31.347h33.437V283.178z"/>
	</g>
</g>
</svg>