<?xml version="1.0" encoding="iso-8859-1"?>
<!-- Uploaded to: SVG Repo, www.svgrepo.com, Generator: SVG Repo Mixer Tools -->
<svg height="800px" width="800px" version="1.1" id="Layer_1" xmlns="http://www.w3.org/2000/svg" xmlns:xlink="http://www.w3.org/1999/xlink" 
	 viewBox="0 0 503.467 503.467" xml:space="preserve">
<g transform="translate(1 1)">
	<path style="fill:#FF7474;" d="M498.2,54.467V447c0,18.773-15.36,34.133-34.133,34.133H191v-460.8h273.067
		C482.84,20.333,498.2,35.693,498.2,54.467z M54.467,20.333v460.8H37.4c-20.48,0-34.133-14.507-34.133-34.133V54.467
		c0-12.8,12.8-34.133,34.133-34.133H54.467z M191,20.333v460.8c0,9.387-7.68,17.067-17.067,17.067h-102.4
		c-9.387,0-17.067-7.68-17.067-17.067v-460.8c0-9.387,7.68-17.067,17.067-17.067h102.4C183.32,3.267,191,10.946,191,20.333z"/>
	<path style="fill:#AAB1BA;" d="M327.533,276.333h34.133V242.2h-34.133V276.333z M395.8,344.6h34.133v-34.133H395.8V344.6z
		 M259.267,412.867H293.4v-34.133h-34.133V412.867z M259.267,344.6H293.4v-34.133h-34.133V344.6z M395.8,412.867h34.133v-34.133
		H395.8V412.867z M259.267,276.333H293.4V242.2h-34.133V276.333z M327.533,344.6h34.133v-34.133h-34.133V344.6z M327.533,412.867
		h34.133v-34.133h-34.133V412.867z M395.8,276.333h34.133V242.2H395.8V276.333z"/>
	<polygon style="fill:#ECF4F7;" points="259.267,191 429.933,191 429.933,88.6 259.267,88.6 	"/>
</g>
<path style="fill:#51565F;" d="M174.933,503.467h-102.4c-10.24,0-18.773-7.68-20.48-17.067H38.4C16.213,486.4,0,470.187,0,448
	V55.467c0-13.653,7.68-26.453,18.773-33.28c1.707-0.853,4.267-0.853,5.973,1.707C25.6,25.6,25.6,28.16,23.04,29.867
	c-9.387,5.12-15.36,15.36-15.36,25.6V448c0,17.92,11.947,29.867,29.867,29.867h17.067c2.56,0,4.267,1.707,4.267,4.267
	c0,6.827,5.973,12.8,12.8,12.8h102.4c6.827,0,12.8-5.973,12.8-12.8v-460.8c0-6.827-5.973-12.8-12.8-12.8H71.68
	c-6.827,0-12.8,5.973-12.8,12.8V448c0,2.56-1.707,4.267-4.267,4.267s-4.267-1.707-4.267-4.267V21.333C50.347,9.387,59.734,0,71.68,0
	h102.4c11.947,0,21.333,9.387,21.333,21.333v460.8C196.267,494.08,186.88,503.467,174.933,503.467z M465.067,486.4H226.133
	c-2.56,0-4.267-1.707-4.267-4.267c0-2.56,1.707-4.267,4.267-4.267h238.933c16.213,0,29.867-13.653,29.867-29.867V55.467
	c0-16.213-13.653-29.867-29.867-29.867H226.133c-2.56,0-4.267-1.707-4.267-4.267s1.707-4.267,4.267-4.267h238.933
	c21.333,0,38.4,17.067,38.4,38.4V448C503.467,469.333,486.4,486.4,465.067,486.4z M430.933,418.133H396.8
	c-2.56,0-4.267-1.707-4.267-4.267v-34.133c0-2.56,1.707-4.267,4.267-4.267h34.133c2.56,0,4.267,1.707,4.267,4.267v34.133
	C435.2,416.426,433.493,418.133,430.933,418.133z M401.067,409.6h25.6V384h-25.6V409.6z M362.667,418.133h-34.133
	c-2.56,0-4.267-1.707-4.267-4.267v-34.133c0-2.56,1.707-4.267,4.267-4.267h34.133c2.56,0,4.267,1.707,4.267,4.267v34.133
	C366.933,416.426,365.227,418.133,362.667,418.133z M332.8,409.6h25.6V384h-25.6V409.6z M294.4,418.133h-34.133
	c-2.56,0-4.267-1.707-4.267-4.267v-34.133c0-2.56,1.707-4.267,4.267-4.267H294.4c2.56,0,4.267,1.707,4.267,4.267v34.133
	C298.667,416.426,296.96,418.133,294.4,418.133z M264.533,409.6h25.6V384h-25.6V409.6z M430.933,349.867H396.8
	c-2.56,0-4.267-1.707-4.267-4.267v-34.133c0-2.56,1.707-4.267,4.267-4.267h34.133c2.56,0,4.267,1.707,4.267,4.267V345.6
	C435.2,348.16,433.493,349.867,430.933,349.867z M401.067,341.333h25.6v-25.6h-25.6V341.333z M362.667,349.867h-34.133
	c-2.56,0-4.267-1.707-4.267-4.267v-34.133c0-2.56,1.707-4.267,4.267-4.267h34.133c2.56,0,4.267,1.707,4.267,4.267V345.6
	C366.933,348.16,365.227,349.867,362.667,349.867z M332.8,341.333h25.6v-25.6h-25.6V341.333z M294.4,349.867h-34.133
	c-2.56,0-4.267-1.707-4.267-4.267v-34.133c0-2.56,1.707-4.267,4.267-4.267H294.4c2.56,0,4.267,1.707,4.267,4.267V345.6
	C298.667,348.16,296.96,349.867,294.4,349.867z M264.533,341.333h25.6v-25.6h-25.6V341.333z M430.933,281.6H396.8
	c-2.56,0-4.267-1.707-4.267-4.267V243.2c0-2.56,1.707-4.267,4.267-4.267h34.133c2.56,0,4.267,1.707,4.267,4.267v34.133
	C435.2,279.893,433.493,281.6,430.933,281.6z M401.067,273.067h25.6v-25.6h-25.6V273.067z M362.667,281.6h-34.133
	c-2.56,0-4.267-1.707-4.267-4.267V243.2c0-2.56,1.707-4.267,4.267-4.267h34.133c2.56,0,4.267,1.707,4.267,4.267v34.133
	C366.933,279.893,365.227,281.6,362.667,281.6z M332.8,273.067h25.6v-25.6h-25.6V273.067z M294.4,281.6h-34.133
	c-2.56,0-4.267-1.707-4.267-4.267V243.2c0-2.56,1.707-4.267,4.267-4.267H294.4c2.56,0,4.267,1.707,4.267,4.267v34.133
	C298.667,279.893,296.96,281.6,294.4,281.6z M264.533,273.067h25.6v-25.6h-25.6V273.067z M430.933,196.267H260.267
	c-2.56,0-4.267-1.707-4.267-4.267V89.6c0-2.56,1.707-4.267,4.267-4.267h170.667c2.56,0,4.267,1.707,4.267,4.267V192
	C435.2,194.56,433.493,196.267,430.933,196.267z M264.533,187.733h162.133V93.867H264.533V187.733z"/>
</svg>