<?xml version="1.0" encoding="iso-8859-1"?>
<!-- Uploaded to: SVG Repo, www.svgrepo.com, Generator: SVG Repo Mixer Tools -->
<svg height="800px" width="800px" version="1.1" id="Layer_1" xmlns="http://www.w3.org/2000/svg" xmlns:xlink="http://www.w3.org/1999/xlink" 
	 viewBox="0 0 512 512" xml:space="preserve">
<circle style="fill:#C3E678;" cx="256" cy="256" r="256"/>
<path style="fill:#A5D76E;" d="M378.307,122.668L219.682,154.31c-6.362,1.269-8.742,9.119-4.153,13.706l24.476,24.474
	l-92.142,92.138l79.502,79.513l92.147-92.142l24.47,24.47c4.588,4.588,12.438,2.209,13.707-4.153L389.33,133.69
	C390.636,127.137,384.861,121.361,378.307,122.668z"/>
<path style="fill:#FFFFFF;" d="M353.273,366.159L283.5,325.987c-6.77-3.897-15.313-2.767-20.836,2.755l-13.743,13.743
	c-5.297,5.297-13.731,5.779-19.567,1.082c-10.775-8.67-21.545-18.318-32.074-28.846c-10.529-10.529-20.177-21.299-28.846-32.074
	c-4.696-5.836-4.215-14.271,1.082-19.567l13.743-13.743c5.524-5.524,6.654-14.067,2.755-20.836l-40.173-69.773
	c-5.673-9.852-19.15-11.635-27.189-3.596L97.943,175.84c-26.987,26.987,4.461,102.191,70.243,167.974s140.986,97.23,167.974,70.243
	l20.708-20.708C364.908,385.309,363.125,371.831,353.273,366.159z"/>
</svg>