<?xml version="1.0" encoding="iso-8859-1"?>
<!-- Uploaded to: SVG Repo, www.svgrepo.com, Generator: SVG Repo Mixer Tools -->
<!DOCTYPE svg PUBLIC "-//W3C//DTD SVG 1.1//EN" "http://www.w3.org/Graphics/SVG/1.1/DTD/svg11.dtd">
<svg fill="#000000" height="800px" width="800px" version="1.1" id="Capa_1" xmlns="http://www.w3.org/2000/svg" xmlns:xlink="http://www.w3.org/1999/xlink" 
	 viewBox="0 0 419.941 419.941" xml:space="preserve">
<path id="XMLID_44_" d="M406.54,375.979l-0.073-306.697c0-0.151-0.004-0.302-0.012-0.452c-0.908-17.98-13.174-33.183-30.521-37.83
	L283.219,6.154c-7.013-1.878-14.736-1.877-21.747,0L207.64,20.579c-4.802,1.287-7.65,6.222-6.364,11.022
	c1.286,4.802,6.223,7.651,11.022,6.364l51.053-13.68v83.329c-0.63,0.137-1.256,0.29-1.879,0.457l-22.6,6.056
	c-4.802,1.287-7.65,6.222-6.364,11.023s6.229,7.649,11.022,6.364l19.82-5.311v84.654c-0.629,0.137-1.255,0.289-1.877,0.456
	l-105.141,28.173v-8.277c0-4.971-4.029-9-9-9s-9,4.029-9,9v8.285L31.316,210.891l-0.002-84.682l19.821,5.311
	c4.8,1.287,9.736-1.563,11.022-6.364c1.286-4.801-1.563-9.736-6.364-11.022l-24.479-6.559l-0.001-83.282l47.307,12.674
	c4.802,1.287,9.736-1.562,11.022-6.364c1.286-4.801-1.563-9.736-6.364-11.022L24.642,3.87c-2.702-0.724-5.589-0.149-7.808,1.553
	c-2.221,1.704-3.521,4.342-3.521,7.14l0.001,101.671c-0.005,0.168-0.004,0.336,0,0.503l0.002,102.941
	c-0.002,0.086-0.002,0.173,0,0.259l0.001,102.662c0,4.08,2.744,7.649,6.687,8.698l125.017,33.256
	c1.521,0.405,3.123,0.403,4.643-0.004l116.47-31.209c1.846-0.495,3.779-0.761,5.72-0.8c0.33,0.019,0.668,0.019,0.996,0
	c1.938,0.04,3.87,0.306,5.716,0.799l92.825,24.882c9.712,2.604,16.344,11.021,17.155,20.504c0.008,0.239,0.024,0.476,0.05,0.709
	c0.131,2.388-0.108,4.835-0.76,7.268c-3.262,12.173-16.307,19.701-28.486,16.442l-76.73-20.535v-14.423l77.116,21.271
	c4.786,1.322,9.746-1.492,11.068-6.283c1.322-4.792-1.491-9.748-6.283-11.069l-88.509-24.414c-2.704-0.745-5.608-0.187-7.846,1.516
	c-2.234,1.702-3.547,4.351-3.547,7.16v33.149c0,4.074,2.737,7.641,6.673,8.694l83.404,22.32c3.561,0.953,7.14,1.409,10.662,1.408
	c18.217,0,34.933-12.172,39.864-30.581C406.421,384.879,406.833,380.37,406.54,375.979z M138.333,342.148L31.317,313.68
	l-0.001-84.157l107.018,28.603V342.148z M263.351,313.498c-0.631,0.137-1.257,0.289-1.877,0.455l-105.141,28.173v-84.005
	l107.018-28.676V313.498z M281.351,24.289l89.926,24.097c9.557,2.561,16.6,11.238,17.19,21.146l0.016,66.784l-105.261-28.244
	c-0.62-0.166-1.244-0.318-1.871-0.455V24.289z M281.351,126.207l107.137,28.748l0.021,84.609l-105.285-28.25
	c-0.621-0.167-1.245-0.318-1.872-0.455V126.207z M376.049,338.835l-92.829-24.883c-0.618-0.165-1.241-0.316-1.869-0.452v-84.052
	l107.161,28.754l0.021,86.341C384.818,342.018,380.626,340.062,376.049,338.835z M84.546,86.931
	c-8.959,11.545-2.124,24.47,2.399,33.023l0.314,0.595c4.659,8.829,11.333,20.959,21.001,38.175c0.759,1.353,1.78,3.259,2.975,5.487
	c10.37,19.341,16.273,29.153,21.772,32.603c4.237,2.66,9.19,4.066,14.324,4.066c5.135,0,10.089-1.406,14.324-4.065
	c5.499-3.45,11.399-13.259,21.765-32.592c1.197-2.233,2.221-4.143,2.982-5.5c6.681-11.906,15.106-27.004,21.002-38.174l0.316-0.599
	c4.521-8.553,11.355-21.478,2.398-33.019c-4.482-5.778-12.049-9.228-20.238-9.228h-5.089l0.001-40.242
	C184.794,16.805,167.989,0,147.332,0S109.87,16.805,109.87,37.462v40.242h-5.09C96.592,77.704,89.028,81.154,84.546,86.931z
	 M98.768,97.965c0.873-1.125,3.07-2.261,6.013-2.261h14.09c4.971,0,9-4.029,9-9V37.462C127.87,26.73,136.602,18,147.333,18
	c10.73,0,19.461,8.73,19.461,19.462l-0.001,49.242c0,2.387,0.948,4.676,2.636,6.364c1.688,1.688,3.978,2.636,6.364,2.636h14.089
	c2.944,0,5.143,1.136,6.018,2.263c1.703,2.195-0.621,7.009-4.091,13.571l-0.321,0.609c-5.866,11.113-14.67,26.877-20.78,37.766
	c-0.804,1.431-1.886,3.447-3.149,5.805c-3.042,5.674-12.23,22.813-15.678,25.978c-1.324,0.776-2.891,1.185-4.548,1.185
	c-1.655,0-3.221-0.409-4.546-1.185c-3.449-3.166-12.644-20.313-15.688-25.99c-1.261-2.352-2.341-4.364-3.143-5.793
	c-9.459-16.844-16.256-29.197-20.778-37.767l-0.32-0.605C99.387,104.978,97.063,100.163,98.768,97.965z"/>
</svg>