<?xml version="1.0" encoding="iso-8859-1"?>
<!-- Uploaded to: SVG Repo, www.svgrepo.com, Generator: SVG Repo Mixer Tools -->
<svg version="1.1" id="Layer_1" xmlns="http://www.w3.org/2000/svg" xmlns:xlink="http://www.w3.org/1999/xlink" 
	 viewBox="0 0 512 512" xml:space="preserve">
<circle style="fill:#FF1D25;" cx="255.854" cy="131.545" r="32.087"/>
<path style="fill:#C1272D;" d="M247.828,131.542c0-13.46,8.305-24.943,20.055-29.707c-3.721-1.509-7.771-2.38-12.033-2.38
	c-17.722,0-32.087,14.366-32.087,32.087s14.366,32.087,32.087,32.087c4.262,0,8.312-0.871,12.033-2.38
	C256.132,156.485,247.828,145.001,247.828,131.542z"/>
<polygon style="fill:#998675;" points="400.243,268.175 504.701,404.285 504.701,412.077 7.299,412.077 7.299,404.285 
	111.456,268.175 "/>
<polygon style="fill:#C7B299;" points="295.959,268.175 231.495,404.285 231.495,412.077 7.299,412.077 7.299,404.285 
	111.456,268.175 "/>
<polygon style="fill:#0071BC;" points="39.259,365.152 151.566,365.152 119.478,412.077 7.299,412.077 7.299,404.285 "/>
<polygon style="fill:#00558D;" points="39.259,365.152 103.434,365.152 71.347,412.077 7.299,412.077 7.299,404.285 "/>
<g>
	<path style="fill:#0071BC;" d="M183.653,380.105c1.674-0.916,120.328-0.057,120.328-0.057l-8.022,32.03H167.61L183.653,380.105z"/>
	<polygon style="fill:#0071BC;" points="352.112,356.81 456.396,356.81 504.701,404.285 504.701,412.077 336.068,412.077 	"/>
</g>
<polygon style="fill:#00558D;" points="183.653,380.794 239.806,380.794 223.763,412.077 231.784,412.077 167.886,412.077 
	167.886,404.285 "/>
<g>
	<polygon style="fill:#0071BC;" points="336.068,268.175 320.025,315.1 432.331,315.1 400.243,268.175 	"/>
	<polygon style="fill:#0071BC;" points="207.719,268.175 183.653,299.458 87.39,299.458 111.456,268.175 	"/>
</g>
<rect x="62.566" y="323.446" style="fill:#FFFFFF;" width="16.684" height="15.642"/>
<g>
	<polygon style="fill:#338DC9;" points="376.178,268.175 400.243,268.175 432.331,315.1 368.156,315.1 	"/>
	<polygon style="fill:#338DC9;" points="416.287,356.81 464.418,356.81 504.528,412.077 408.265,412.077 	"/>
</g>
<polygon style="fill:#00558D;" points="135.521,299.458 159.588,268.175 111.456,268.175 87.39,299.458 "/>
<g>
	
		<rect x="226.936" y="324.235" transform="matrix(-0.8321 -0.5547 0.5547 -0.8321 284.5371 750.3635)" style="fill:#FF1D25;" width="57.845" height="15.746"/>
	
		<rect x="247.967" y="303.185" transform="matrix(-0.5547 -0.8321 0.8321 -0.5547 121.413 729.1959)" style="fill:#FF1D25;" width="15.746" height="57.845"/>
</g>
<g>
	<rect x="207.511" y="323.446" style="fill:#FFFFFF;" width="16.684" height="15.642"/>
	<rect x="184.57" y="323.446" style="fill:#FFFFFF;" width="14.599" height="15.642"/>
	<rect x="159.544" y="323.446" style="fill:#FFFFFF;" width="15.642" height="15.642"/>
	<rect x="135.56" y="323.446" style="fill:#FFFFFF;" width="16.684" height="15.642"/>
	<rect x="111.576" y="323.446" style="fill:#FFFFFF;" width="16.684" height="15.642"/>
	<rect x="86.55" y="323.446" style="fill:#FFFFFF;" width="16.684" height="15.642"/>
</g>
<path d="M404.12,259.833H261.735v-88.767c19.254-2.855,34.076-19.489,34.076-39.524c0-22.035-17.926-39.961-39.961-39.961
	s-39.961,17.926-39.961,39.961c0,18.67,12.871,34.385,30.205,38.751v89.538H107.572L0,401.655v18.765h512v-18.77L404.12,259.833z
	 M231.636,131.542c0-13.352,10.863-24.214,24.214-24.214s24.214,10.861,24.214,24.214c0,13.352-10.863,24.214-24.214,24.214
	C242.498,155.755,231.636,144.893,231.636,131.542z M420.957,307.8h-90.036l10.916-32.326h54.53L420.957,307.8z M261.735,330.741
	v-55.267h63.591l-16.197,47.967h123.62v-0.139l19.936,26.208H346.179l-15.466,55.267h-24.798l8.085-32.326H178.821l-16.176,32.326
	h-28.696l32.315-47.967H53.646l37.175-49.01h96.784l23.821-32.326h34.668v55.267H261.735z M289.791,404.778H180.135l8.349-16.684
	h105.478L289.791,404.778z M115.34,275.474h76.656l-12.294,16.684h-77.017L115.34,275.474z M41.783,372.452h95.084l-21.778,32.326
	H17.263L41.783,372.452z M346.956,404.778l11.09-39.625h106.54l30.142,39.625H346.956z"/>
</svg>